<svg width="0" height="0" class="hidden">
  <symbol fill="currentColor" xmlns="http://www.w3.org/2000/svg" viewBox="0 0 25 24" id="icon-arrow-bottom">
    <mask id="mask0_644_133" maskUnits="userSpaceOnUse" x="0" y="0" width="25" height="24">
      <rect x="0.196777" width="24" height="24" fill="currentColor"></rect>
    </mask>
    <g mask="url(#mask0_644_133)">
      <path d="M22.0842 7.88769L12.0842 17.8877L2.08423 7.8877L3.85923 6.11269L12.0842 14.3377L20.3092 6.11269L22.0842 7.88769Z" fill="currentColor"></path>
    </g>
  </symbol>
  <symbol fill="currentColor" xmlns="http://www.w3.org/2000/svg" viewBox="0 0 24 24" id="icon-arrow-left">
    <mask id="mask0_644_80" maskUnits="userSpaceOnUse" x="0" y="0" width="24" height="24">
      <rect width="24" height="24" fill="currentColor"></rect>
    </mask>
    <g mask="url(#mask0_644_80)">
      <path d="M16 22L6 12L16 2L17.775 3.775L9.55 12L17.775 20.225L16 22Z" fill="currentColor"></path>
    </g>
  </symbol>
  <symbol fill="currentColor" xmlns="http://www.w3.org/2000/svg" viewBox="0 0 25 24" id="icon-arrow-right">
    <mask id="mask0_644_130" maskUnits="userSpaceOnUse" x="0" y="0" width="25" height="24">
      <rect x="0.732178" width="24" height="24" fill="currentColor"></rect>
    </mask>
    <g mask="url(#mask0_644_130)">
      <path d="M8.50708 2L18.5071 12L8.50708 22L6.73208 20.225L14.9571 12L6.73208 3.775L8.50708 2Z" fill="currentColor"></path>
    </g>
  </symbol>
  <symbol fill="currentColor" xmlns="http://www.w3.org/2000/svg" viewBox="0 0 25 24" id="icon-arrow-top">
    <mask id="mask0_644_127" maskUnits="userSpaceOnUse" x="0" y="0" width="25" height="24">
      <rect x="0.464355" width="24" height="24" fill="currentColor"></rect>
    </mask>
    <g mask="url(#mask0_644_127)">
      <path d="M2.35181 16.1123L12.3518 6.1123L22.3518 16.1123L20.5768 17.8873L12.3518 9.6623L4.12681 17.8873L2.35181 16.1123Z" fill="currentColor"></path>
    </g>
  </symbol>
  <symbol fill="currentColor" xmlns="http://www.w3.org/2000/svg" viewBox="0 0 25 24" id="icon-calendar">
    <mask id="mask0_644_56" maskUnits="userSpaceOnUse" x="0" y="0" width="25" height="24">
      <rect x="0.464355" width="24" height="24" fill="currentColor"></rect>
    </mask>
    <g mask="url(#mask0_644_56)">
      <path d="M5.46436 22C4.91436 22 4.44352 21.8042 4.05186 21.4125C3.66019 21.0208 3.46436 20.55 3.46436 20V6C3.46436 5.45 3.66019 4.97917 4.05186 4.5875C4.44352 4.19583 4.91436 4 5.46436 4H6.46436V2H8.46436V4H16.4644V2H18.4644V4H19.4644C20.0144 4 20.4852 4.19583 20.8769 4.5875C21.2685 4.97917 21.4644 5.45 21.4644 6V20C21.4644 20.55 21.2685 21.0208 20.8769 21.4125C20.4852 21.8042 20.0144 22 19.4644 22H5.46436ZM5.46436 20H19.4644V10H5.46436V20ZM5.46436 8H19.4644V6H5.46436V8ZM12.4644 14C12.181 14 11.9435 13.9042 11.7519 13.7125C11.5602 13.5208 11.4644 13.2833 11.4644 13C11.4644 12.7167 11.5602 12.4792 11.7519 12.2875C11.9435 12.0958 12.181 12 12.4644 12C12.7477 12 12.9852 12.0958 13.1769 12.2875C13.3685 12.4792 13.4644 12.7167 13.4644 13C13.4644 13.2833 13.3685 13.5208 13.1769 13.7125C12.9852 13.9042 12.7477 14 12.4644 14ZM8.46436 14C8.18102 14 7.94352 13.9042 7.75186 13.7125C7.56019 13.5208 7.46436 13.2833 7.46436 13C7.46436 12.7167 7.56019 12.4792 7.75186 12.2875C7.94352 12.0958 8.18102 12 8.46436 12C8.74769 12 8.98519 12.0958 9.17686 12.2875C9.36852 12.4792 9.46436 12.7167 9.46436 13C9.46436 13.2833 9.36852 13.5208 9.17686 13.7125C8.98519 13.9042 8.74769 14 8.46436 14ZM16.4644 14C16.181 14 15.9435 13.9042 15.7519 13.7125C15.5602 13.5208 15.4644 13.2833 15.4644 13C15.4644 12.7167 15.5602 12.4792 15.7519 12.2875C15.9435 12.0958 16.181 12 16.4644 12C16.7477 12 16.9852 12.0958 17.1769 12.2875C17.3685 12.4792 17.4644 12.7167 17.4644 13C17.4644 13.2833 17.3685 13.5208 17.1769 13.7125C16.9852 13.9042 16.7477 14 16.4644 14ZM12.4644 18C12.181 18 11.9435 17.9042 11.7519 17.7125C11.5602 17.5208 11.4644 17.2833 11.4644 17C11.4644 16.7167 11.5602 16.4792 11.7519 16.2875C11.9435 16.0958 12.181 16 12.4644 16C12.7477 16 12.9852 16.0958 13.1769 16.2875C13.3685 16.4792 13.4644 16.7167 13.4644 17C13.4644 17.2833 13.3685 17.5208 13.1769 17.7125C12.9852 17.9042 12.7477 18 12.4644 18ZM8.46436 18C8.18102 18 7.94352 17.9042 7.75186 17.7125C7.56019 17.5208 7.46436 17.2833 7.46436 17C7.46436 16.7167 7.56019 16.4792 7.75186 16.2875C7.94352 16.0958 8.18102 16 8.46436 16C8.74769 16 8.98519 16.0958 9.17686 16.2875C9.36852 16.4792 9.46436 16.7167 9.46436 17C9.46436 17.2833 9.36852 17.5208 9.17686 17.7125C8.98519 17.9042 8.74769 18 8.46436 18ZM16.4644 18C16.181 18 15.9435 17.9042 15.7519 17.7125C15.5602 17.5208 15.4644 17.2833 15.4644 17C15.4644 16.7167 15.5602 16.4792 15.7519 16.2875C15.9435 16.0958 16.181 16 16.4644 16C16.7477 16 16.9852 16.0958 17.1769 16.2875C17.3685 16.4792 17.4644 16.7167 17.4644 17C17.4644 17.2833 17.3685 17.5208 17.1769 17.7125C16.9852 17.9042 16.7477 18 16.4644 18Z" fill="currentColor"></path>
    </g>
  </symbol>
  <symbol fill="currentColor" xmlns="http://www.w3.org/2000/svg" viewBox="0 0 25 24" id="icon-check">
    <mask id="mask0_644_74" maskUnits="userSpaceOnUse" x="0" y="0" width="25" height="24">
      <rect x="0.928711" width="24" height="24" fill="currentColor"></rect>
    </mask>
    <g mask="url(#mask0_644_74)">
      <path d="M10.4788 18.0001L4.77881 12.3001L6.20381 10.8751L10.4788 15.1501L19.6538 5.9751L21.0788 7.4001L10.4788 18.0001Z" fill="currentColor"></path>
    </g>
  </symbol>
  <symbol fill="none" xmlns="http://www.w3.org/2000/svg" viewBox="0 0 25 24" id="icon-checkbox-checked">
    <g clip-path="url(#clip0_405_1225)">
      <rect x="1.46436" y="1" width="22" height="22" rx="3" fill="#242424"></rect>
      <rect x="1.46436" y="1" width="22" height="22" rx="3" stroke="#26CBFE" stroke-width="2"></rect>
      <path d="M10.3205 17.7465L5.33301 12.759L6.57988 11.5121L10.3205 15.2527L18.3486 7.22461L19.5955 8.47148L10.3205 17.7465Z" fill="#26CBFE"></path>
    </g>
    <defs>
      <clipPath id="clip0_405_1225">
        <rect width="24" height="24" fill="white" transform="translate(0.464355)"></rect>
      </clipPath>
    </defs>
  </symbol>
  <symbol fill="none" xmlns="http://www.w3.org/2000/svg" viewBox="0 0 25 24" id="icon-checkbox-default">
    <g clip-path="url(#clip0_405_1226)">
      <rect x="0.196289" width="24" height="24" rx="4" fill="#424242"></rect>
      <path d="M10.0524 17.7465L5.06494 12.759L6.31182 11.5121L10.0524 15.2527L18.0806 7.22461L19.3274 8.47148L10.0524 17.7465Z" fill="#6C6C6C"></path>
    </g>
    <defs>
      <clipPath id="clip0_405_1226">
        <rect width="24" height="24" fill="white" transform="translate(0.196289)"></rect>
      </clipPath>
    </defs>
  </symbol>
  <symbol fill="currentColor" xmlns="http://www.w3.org/2000/svg" viewBox="0 0 25 24" id="icon-close">
    <mask id="mask0_644_98" maskUnits="userSpaceOnUse" x="0" y="0" width="25" height="24">
      <rect x="0.732178" width="24" height="24" fill="currentColor"></rect>
    </mask>
    <g mask="url(#mask0_644_98)">
      <path d="M7.13218 19L5.73218 17.6L11.3322 12L5.73218 6.4L7.13218 5L12.7322 10.6L18.3322 5L19.7322 6.4L14.1322 12L19.7322 17.6L18.3322 19L12.7322 13.4L7.13218 19Z" fill="currentColor"></path>
    </g>
  </symbol>
  <symbol fill="currentColor" xmlns="http://www.w3.org/2000/svg" viewBox="0 0 25 24" id="icon-divide">
    <rect x="11.9282" y="4" width="2" height="16" fill="currentColor"></rect>
  </symbol>
  <symbol fill="currentColor" xmlns="http://www.w3.org/2000/svg" viewBox="0 0 25 24" id="icon-favorite">
    <path d="M11.3227 2.98495C11.68 2.26088 12.7125 2.26088 13.0699 2.98495L15.4054 7.71711C15.5473 8.00464 15.8216 8.20393 16.1389 8.25003L21.3611 9.00887C22.1602 9.12498 22.4792 10.107 21.901 10.6706L18.1222 14.354C17.8926 14.5778 17.7878 14.9003 17.842 15.2163L18.7341 20.4175C18.8706 21.2133 18.0352 21.8202 17.3205 21.4445L12.6496 18.9888C12.3658 18.8396 12.0268 18.8396 11.743 18.9888L7.07203 21.4445C6.35733 21.8202 5.52202 21.2133 5.65851 20.4175L6.55058 15.2163C6.60478 14.9003 6.50001 14.5778 6.2704 14.354L2.49155 10.6706C1.91335 10.107 2.23241 9.12498 3.03147 9.00887L8.25371 8.25003C8.57102 8.20393 8.84532 8.00464 8.98723 7.71711L11.3227 2.98495Z" fill="currentColor"></path>
    <path d="M11.3227 2.98495C11.68 2.26088 12.7125 2.26088 13.0699 2.98495L15.4054 7.71711C15.5473 8.00464 15.8216 8.20393 16.1389 8.25003L21.3611 9.00887C22.1602 9.12498 22.4792 10.107 21.901 10.6706L18.1222 14.354C17.8926 14.5778 17.7878 14.9003 17.842 15.2163L18.7341 20.4175C18.8706 21.2133 18.0352 21.8202 17.3205 21.4445L12.6496 18.9888C12.3658 18.8396 12.0268 18.8396 11.743 18.9888L7.07203 21.4445C6.35733 21.8202 5.52202 21.2133 5.65851 20.4175L6.55058 15.2163C6.60478 14.9003 6.50001 14.5778 6.2704 14.354L2.49155 10.6706C1.91335 10.107 2.23241 9.12498 3.03147 9.00887L8.25371 8.25003C8.57102 8.20393 8.84532 8.00464 8.98723 7.71711L11.3227 2.98495Z" fill="currentColor"></path>
    <path d="M11.3227 2.98495C11.68 2.26088 12.7125 2.26088 13.0699 2.98495L15.4054 7.71711C15.5473 8.00464 15.8216 8.20393 16.1389 8.25003L21.3611 9.00887C22.1602 9.12498 22.4792 10.107 21.901 10.6706L18.1222 14.354C17.8926 14.5778 17.7878 14.9003 17.842 15.2163L18.7341 20.4175C18.8706 21.2133 18.0352 21.8202 17.3205 21.4445L12.6496 18.9888C12.3658 18.8396 12.0268 18.8396 11.743 18.9888L7.07203 21.4445C6.35733 21.8202 5.52202 21.2133 5.65851 20.4175L6.55058 15.2163C6.60478 14.9003 6.50001 14.5778 6.2704 14.354L2.49155 10.6706C1.91335 10.107 2.23241 9.12498 3.03147 9.00887L8.25371 8.25003C8.57102 8.20393 8.84532 8.00464 8.98723 7.71711L11.3227 2.98495Z" fill="currentColor"></path>
    <path d="M11.3227 2.98495C11.68 2.26088 12.7125 2.26088 13.0699 2.98495L15.4054 7.71711C15.5473 8.00464 15.8216 8.20393 16.1389 8.25003L21.3611 9.00887C22.1602 9.12498 22.4792 10.107 21.901 10.6706L18.1222 14.354C17.8926 14.5778 17.7878 14.9003 17.842 15.2163L18.7341 20.4175C18.8706 21.2133 18.0352 21.8202 17.3205 21.4445L12.6496 18.9888C12.3658 18.8396 12.0268 18.8396 11.743 18.9888L7.07203 21.4445C6.35733 21.8202 5.52202 21.2133 5.65851 20.4175L6.55058 15.2163C6.60478 14.9003 6.50001 14.5778 6.2704 14.354L2.49155 10.6706C1.91335 10.107 2.23241 9.12498 3.03147 9.00887L8.25371 8.25003C8.57102 8.20393 8.84532 8.00464 8.98723 7.71711L11.3227 2.98495Z" fill="currentColor"></path>
    <path d="M11.3227 2.98495C11.68 2.26088 12.7125 2.26088 13.0699 2.98495L15.4054 7.71711C15.5473 8.00464 15.8216 8.20393 16.1389 8.25003L21.3611 9.00887C22.1602 9.12498 22.4792 10.107 21.901 10.6706L18.1222 14.354C17.8926 14.5778 17.7878 14.9003 17.842 15.2163L18.7341 20.4175C18.8706 21.2133 18.0352 21.8202 17.3205 21.4445L12.6496 18.9888C12.3658 18.8396 12.0268 18.8396 11.743 18.9888L7.07203 21.4445C6.35733 21.8202 5.52202 21.2133 5.65851 20.4175L6.55058 15.2163C6.60478 14.9003 6.50001 14.5778 6.2704 14.354L2.49155 10.6706C1.91335 10.107 2.23241 9.12498 3.03147 9.00887L8.25371 8.25003C8.57102 8.20393 8.84532 8.00464 8.98723 7.71711L11.3227 2.98495Z" fill="currentColor"></path>
  </symbol>
  <symbol fill="currentColor" xmlns="http://www.w3.org/2000/svg" viewBox="0 0 25 24" id="icon-instagram">
    <g clip-path="url(#clip0_405_1196)">
      <path d="M8.26436 2H16.6644C19.8644 2 22.4644 4.6 22.4644 7.8V16.2C22.4644 17.7383 21.8533 19.2135 20.7656 20.3012C19.6779 21.3889 18.2026 22 16.6644 22H8.26436C5.06436 22 2.46436 19.4 2.46436 16.2V7.8C2.46436 6.26174 3.07543 4.78649 4.16314 3.69878C5.25085 2.61107 6.7261 2 8.26436 2ZM8.06436 4C7.10958 4 6.1939 4.37928 5.51877 5.05442C4.84364 5.72955 4.46436 6.64522 4.46436 7.6V16.4C4.46436 18.39 6.07436 20 8.06436 20H16.8644C17.8191 20 18.7348 19.6207 19.4099 18.9456C20.0851 18.2705 20.4644 17.3548 20.4644 16.4V7.6C20.4644 5.61 18.8544 4 16.8644 4H8.06436ZM17.7144 5.5C18.0459 5.5 18.3638 5.6317 18.5982 5.86612C18.8327 6.10054 18.9644 6.41848 18.9644 6.75C18.9644 7.08152 18.8327 7.39946 18.5982 7.63388C18.3638 7.8683 18.0459 8 17.7144 8C17.3828 8 17.0649 7.8683 16.8305 7.63388C16.5961 7.39946 16.4644 7.08152 16.4644 6.75C16.4644 6.41848 16.5961 6.10054 16.8305 5.86612C17.0649 5.6317 17.3828 5.5 17.7144 5.5ZM12.4644 7C13.7904 7 15.0622 7.52678 15.9999 8.46447C16.9376 9.40215 17.4644 10.6739 17.4644 12C17.4644 13.3261 16.9376 14.5979 15.9999 15.5355C15.0622 16.4732 13.7904 17 12.4644 17C11.1383 17 9.8665 16.4732 8.92882 15.5355C7.99114 14.5979 7.46436 13.3261 7.46436 12C7.46436 10.6739 7.99114 9.40215 8.92882 8.46447C9.8665 7.52678 11.1383 7 12.4644 7ZM12.4644 9C11.6687 9 10.9056 9.31607 10.343 9.87868C9.78043 10.4413 9.46436 11.2044 9.46436 12C9.46436 12.7956 9.78043 13.5587 10.343 14.1213C10.9056 14.6839 11.6687 15 12.4644 15C13.26 15 14.0231 14.6839 14.5857 14.1213C15.1483 13.5587 15.4644 12.7956 15.4644 12C15.4644 11.2044 15.1483 10.4413 14.5857 9.87868C14.0231 9.31607 13.26 9 12.4644 9Z" fill="currentColor"></path>
    </g>
    <defs>
      <clipPath id="clip0_405_1196">
        <rect width="24" height="24" fill="white" transform="translate(0.464355)"></rect>
      </clipPath>
    </defs>
  </symbol>
  <symbol fill="currentColor" xmlns="http://www.w3.org/2000/svg" viewBox="0 0 24 24" id="icon-mail">
    <mask id="mask0_644_92" maskUnits="userSpaceOnUse" x="0" y="0" width="24" height="24">
      <rect width="24" height="24" fill="currentColor"></rect>
    </mask>
    <g mask="url(#mask0_644_92)">
      <path d="M4 20C3.45 20 2.97917 19.8042 2.5875 19.4125C2.19583 19.0208 2 18.55 2 18V6C2 5.45 2.19583 4.97917 2.5875 4.5875C2.97917 4.19583 3.45 4 4 4H20C20.55 4 21.0208 4.19583 21.4125 4.5875C21.8042 4.97917 22 5.45 22 6V18C22 18.55 21.8042 19.0208 21.4125 19.4125C21.0208 19.8042 20.55 20 20 20H4ZM12 13L4 8V18H20V8L12 13ZM12 11L20 6H4L12 11ZM4 8V6V18V8Z" fill="currentColor"></path>
    </g>
  </symbol>
  <symbol fill="currentColor" xmlns="http://www.w3.org/2000/svg" viewBox="0 0 24 24" id="icon-menu">
    <mask id="mask0_644_110" maskUnits="userSpaceOnUse" x="0" y="0" width="24" height="24">
      <rect width="24" height="24" fill="currentColor"></rect>
    </mask>
    <g mask="url(#mask0_644_110)">
      <path d="M3 18V16H21V18H3ZM3 13V11H21V13H3ZM3 8V6H21V8H3Z" fill="currentColor"></path>
    </g>
  </symbol>
  <symbol fill="none" xmlns="http://www.w3.org/2000/svg" viewBox="0 0 24 24" id="icon-radio-checked">
    <g clip-path="url(#clip0_405_1219)">
      <rect x="1" y="1" width="22" height="22" rx="11" fill="#424242"></rect>
      <rect x="1" y="1" width="22" height="22" rx="11" stroke="#26CBFE" stroke-width="2"></rect>
      <circle cx="12" cy="12" r="7.5" fill="#26CBFE"></circle>
    </g>
    <defs>
      <clipPath id="clip0_405_1219">
        <rect width="24" height="24" fill="white"></rect>
      </clipPath>
    </defs>
  </symbol>
  <symbol fill="none" xmlns="http://www.w3.org/2000/svg" viewBox="0 0 25 24" id="icon-radio-default">
    <g clip-path="url(#clip0_405_1221)">
      <rect x="0.732178" width="24" height="24" rx="12" fill="#424242"></rect>
      <circle cx="12.7322" cy="12" r="7.5" fill="#6C6C6C"></circle>
    </g>
    <defs>
      <clipPath id="clip0_405_1221">
        <rect width="24" height="24" fill="white" transform="translate(0.732178)"></rect>
      </clipPath>
    </defs>
  </symbol>
  <symbol fill="currentColor" xmlns="http://www.w3.org/2000/svg" viewBox="0 0 25 24" id="icon-task">
    <mask id="mask0_644_104" maskUnits="userSpaceOnUse" x="0" y="0" width="25" height="24">
      <rect x="0.196777" width="24" height="24" fill="currentColor"></rect>
    </mask>
    <g mask="url(#mask0_644_104)">
      <path d="M12.1968 22C10.8134 22 9.51344 21.7375 8.29678 21.2125C7.08011 20.6875 6.02178 19.975 5.12178 19.075C4.22178 18.175 3.50928 17.1167 2.98428 15.9C2.45928 14.6833 2.19678 13.3833 2.19678 12C2.19678 10.6167 2.45928 9.31667 2.98428 8.1C3.50928 6.88333 4.22178 5.825 5.12178 4.925C6.02178 4.025 7.08011 3.3125 8.29678 2.7875C9.51344 2.2625 10.8134 2 12.1968 2C13.2801 2 14.3051 2.15833 15.2718 2.475C16.2384 2.79167 17.1301 3.23333 17.9468 3.8L16.4968 5.275C15.8634 4.875 15.1884 4.5625 14.4718 4.3375C13.7551 4.1125 12.9968 4 12.1968 4C9.98011 4 8.09261 4.77917 6.53428 6.3375C4.97594 7.89583 4.19678 9.78333 4.19678 12C4.19678 14.2167 4.97594 16.1042 6.53428 17.6625C8.09261 19.2208 9.98011 20 12.1968 20C14.4134 20 16.3009 19.2208 17.8593 17.6625C19.4176 16.1042 20.1968 14.2167 20.1968 12C20.1968 11.7 20.1801 11.4 20.1468 11.1C20.1134 10.8 20.0634 10.5083 19.9968 10.225L21.6218 8.6C21.8051 9.13333 21.9468 9.68333 22.0468 10.25C22.1468 10.8167 22.1968 11.4 22.1968 12C22.1968 13.3833 21.9343 14.6833 21.4093 15.9C20.8843 17.1167 20.1718 18.175 19.2718 19.075C18.3718 19.975 17.3134 20.6875 16.0968 21.2125C14.8801 21.7375 13.5801 22 12.1968 22ZM10.7968 16.6L6.54678 12.35L7.94678 10.95L10.7968 13.8L20.7968 3.775L22.1968 5.175L10.7968 16.6Z" fill="currentColor"></path>
    </g>
  </symbol>
  <symbol fill="currentColor" xmlns="http://www.w3.org/2000/svg" viewBox="0 0 25 24" id="icon-threads">
    <g clip-path="url(#clip0_405_1194)">
      <path d="M17.4373 11.108C17.2753 8.121 15.6433 6.411 12.9033 6.394C11.2513 6.384 9.87027 7.084 9.02427 8.367L10.5323 9.4C11.1663 8.439 12.1673 8.24 12.8923 8.247C13.7953 8.253 14.4753 8.515 14.9163 9.027C15.2363 9.399 15.4513 9.914 15.5583 10.563C14.7569 10.427 13.8936 10.3853 12.9683 10.438C10.3623 10.588 8.68827 12.108 8.80027 14.219C8.85727 15.29 9.39027 16.212 10.3023 16.814C11.0723 17.323 12.0663 17.571 13.0973 17.515C14.4603 17.44 15.5293 16.921 16.2753 15.97C16.8413 15.248 17.1993 14.312 17.3573 13.134C18.0073 13.526 18.4873 14.041 18.7543 14.661C19.2063 15.715 19.2323 17.447 17.8193 18.859C16.5813 20.095 15.0933 20.631 12.8443 20.647C10.3493 20.629 8.46227 19.828 7.23627 18.269C6.08627 16.809 5.49327 14.699 5.47127 12C5.49327 9.3 6.08727 7.191 7.23627 5.73C8.46227 4.171 10.3493 3.371 12.8443 3.353C15.3573 3.372 17.2763 4.175 18.5503 5.743C19.1753 6.511 19.6453 7.477 19.9563 8.603L21.7223 8.133C21.3453 6.746 20.7533 5.551 19.9483 4.56C18.3153 2.55 15.9153 1.521 12.8383 1.5C9.76727 1.521 7.40627 2.555 5.81927 4.571C4.40827 6.366 3.67927 8.877 3.65527 12.007C3.67927 15.137 4.40827 17.634 5.81927 19.429C7.40627 21.445 9.77927 22.479 12.8493 22.5C15.5803 22.481 17.5043 21.766 19.0893 20.183C21.1643 18.11 21.1013 15.513 20.4183 13.919C19.8933 12.694 18.8483 11.713 17.4383 11.109M13.0003 15.666C11.8583 15.73 10.6723 15.218 10.6133 14.12C10.5703 13.306 11.1933 12.398 13.0703 12.29C13.9186 12.2332 14.7707 12.2917 15.6033 12.464C15.3873 15.166 14.1183 15.604 13.0003 15.666Z" fill="currentColor"></path>
    </g>
    <defs>
      <clipPath id="clip0_405_1194">
        <rect width="24" height="24" fill="white" transform="translate(0.732178)"></rect>
      </clipPath>
    </defs>
  </symbol>
</svg>