<svg width="0" height="0" class="hidden">
  <symbol fill="none" xmlns="http://www.w3.org/2000/svg" viewBox="0 0 25 24" id="cancel">
    <path d="M19.4951 19L4.49512 4.00003ZM19.4951 4L4.49514 19Z" fill="#B0B0B0"></path>
    <path d="M19.4951 19L4.49512 4.00003M19.4951 4L4.49514 19" stroke="#B0B0B0" stroke-width="2" stroke-linecap="round"></path>
  </symbol>
  <symbol fill="none" xmlns="http://www.w3.org/2000/svg" viewBox="0 0 25 24" id="checkedBold">
    <g clip-path="url(#clip0_405_1169)">
      <path fill-rule="evenodd" clip-rule="evenodd" d="M11.162 18.3907L0.495117 7.72386L3.16136 5.05762L12.4951 14.3914L21.8289 5.05762L24.4951 7.72386L13.8282 18.3907C13.4746 18.7442 12.9951 18.9428 12.4951 18.9428C11.9951 18.9428 11.5156 18.7442 11.162 18.3907Z" fill="#B0B0B0"></path>
    </g>
    <defs>
      <clipPath id="clip0_405_1169">
        <rect width="24" height="24" fill="white" transform="translate(0.495117)"></rect>
      </clipPath>
    </defs>
  </symbol>
  <symbol fill="none" xmlns="http://www.w3.org/2000/svg" viewBox="0 0 25 24" id="checked">
    <g clip-path="url(#clip0_405_1225)">
      <rect x="1.49512" y="1" width="22" height="22" rx="3" fill="#242424"></rect>
      <rect x="1.49512" y="1" width="22" height="22" rx="3" stroke="#26CBFE" stroke-width="2"></rect>
      <path d="M10.3513 17.7465L5.36377 12.759L6.61064 11.5121L10.3513 15.2527L18.3794 7.22461L19.6263 8.47148L10.3513 17.7465Z" fill="#26CBFE"></path>
    </g>
    <defs>
      <clipPath id="clip0_405_1225">
        <rect width="24" height="24" fill="white" transform="translate(0.495117)"></rect>
      </clipPath>
    </defs>
  </symbol>
  <symbol fill="none" xmlns="http://www.w3.org/2000/svg" viewBox="0 0 25 24" id="checkedBox">
    <g clip-path="url(#clip0_405_1174)">
      <path fill-rule="evenodd" clip-rule="evenodd" d="M12.4951 24C19.1225 24 24.4951 18.6274 24.4951 12C24.4951 5.37258 19.1225 0 12.4951 0C5.8677 0 0.495117 5.37258 0.495117 12C0.495117 18.6274 5.8677 24 12.4951 24ZM6.49512 12.2301L10.6914 16.4264L18.4951 8.62269L17.446 7.57361L10.6914 14.3282L7.5442 11.181L6.49512 12.2301Z" fill="#B0B0B0"></path>
    </g>
    <defs>
      <clipPath id="clip0_405_1174">
        <rect width="24" height="24" fill="white" transform="translate(0.495117)"></rect>
      </clipPath>
    </defs>
  </symbol>
  <symbol fill="none" xmlns="http://www.w3.org/2000/svg" viewBox="0 0 25 24" id="checkedThin">
    <g clip-path="url(#clip0_405_1170)">
      <path d="M8.88776 20.853L0.495117 12.4603L2.59328 10.3622L8.88776 16.6567L22.397 3.14746L24.4951 5.24562L8.88776 20.853Z" fill="#B0B0B0"></path>
    </g>
    <defs>
      <clipPath id="clip0_405_1170">
        <rect width="24" height="24" fill="white" transform="translate(0.495117)"></rect>
      </clipPath>
    </defs>
  </symbol>
  <symbol fill="none" xmlns="http://www.w3.org/2000/svg" viewBox="0 0 25 24" id="email">
    <g clip-path="url(#clip0_405_1192)">
      <path d="M4.49512 20C3.94512 20 3.47445 19.8043 3.08312 19.413C2.69178 19.0217 2.49578 18.5507 2.49512 18V6C2.49512 5.45 2.69112 4.97933 3.08312 4.588C3.47512 4.19667 3.94578 4.00067 4.49512 4H20.4951C21.0451 4 21.5161 4.196 21.9081 4.588C22.3001 4.98 22.4958 5.45067 22.4951 6V18C22.4951 18.55 22.2994 19.021 21.9081 19.413C21.5168 19.805 21.0458 20.0007 20.4951 20H4.49512ZM12.4951 13L4.49512 8V18H20.4951V8L12.4951 13ZM12.4951 11L20.4951 6H4.49512L12.4951 11ZM4.49512 8V6V18V8Z" fill="#B0B0B0"></path>
    </g>
    <defs>
      <clipPath id="clip0_405_1192">
        <rect width="24" height="24" fill="white" transform="translate(0.495117)"></rect>
      </clipPath>
    </defs>
  </symbol>
  <symbol fill="none" xmlns="http://www.w3.org/2000/svg" viewBox="0 0 25 24" id="emptyStar">
    <g clip-path="url(#clip0_405_1172)">
      <path d="M11.4468 1.18145C11.8756 0.312564 13.1146 0.312563 13.5434 1.18145L16.346 6.86004C16.5163 7.20507 16.8454 7.44422 17.2262 7.49955L23.4929 8.41016C24.4518 8.54949 24.8347 9.72785 24.1408 10.4042L19.6062 14.8244C19.3307 15.0929 19.2049 15.4799 19.27 15.8591L20.3404 22.1005C20.5042 23.0555 19.5019 23.7837 18.6442 23.3329L13.0391 20.3861C12.6986 20.207 12.2917 20.207 11.9511 20.3861L6.34601 23.3329C5.48837 23.7837 4.48599 23.0555 4.64979 22.1005L5.72027 15.8591C5.78531 15.4799 5.65958 15.0929 5.38405 14.8244L0.849432 10.4042C0.155586 9.72785 0.538458 8.54949 1.49733 8.41016L7.76403 7.49955C8.14479 7.44422 8.47396 7.20507 8.64424 6.86004L11.4468 1.18145Z" fill="#B0B0B0"></path>
      <path d="M11.4468 1.18145C11.8756 0.312564 13.1146 0.312563 13.5434 1.18145L16.346 6.86004C16.5163 7.20507 16.8454 7.44422 17.2262 7.49955L23.4929 8.41016C24.4518 8.54949 24.8347 9.72785 24.1408 10.4042L19.6062 14.8244C19.3307 15.0929 19.2049 15.4799 19.27 15.8591L20.3404 22.1005C20.5042 23.0555 19.5019 23.7837 18.6442 23.3329L13.0391 20.3861C12.6986 20.207 12.2917 20.207 11.9511 20.3861L6.34601 23.3329C5.48837 23.7837 4.48599 23.0555 4.64979 22.1005L5.72027 15.8591C5.78531 15.4799 5.65958 15.0929 5.38405 14.8244L0.849432 10.4042C0.155586 9.72785 0.538458 8.54949 1.49733 8.41016L7.76403 7.49955C8.14479 7.44422 8.47396 7.20507 8.64424 6.86004L11.4468 1.18145Z" fill="#B0B0B0"></path>
      <path d="M11.4468 1.18145C11.8756 0.312564 13.1146 0.312563 13.5434 1.18145L16.346 6.86004C16.5163 7.20507 16.8454 7.44422 17.2262 7.49955L23.4929 8.41016C24.4518 8.54949 24.8347 9.72785 24.1408 10.4042L19.6062 14.8244C19.3307 15.0929 19.2049 15.4799 19.27 15.8591L20.3404 22.1005C20.5042 23.0555 19.5019 23.7837 18.6442 23.3329L13.0391 20.3861C12.6986 20.207 12.2917 20.207 11.9511 20.3861L6.34601 23.3329C5.48837 23.7837 4.48599 23.0555 4.64979 22.1005L5.72027 15.8591C5.78531 15.4799 5.65958 15.0929 5.38405 14.8244L0.849432 10.4042C0.155586 9.72785 0.538458 8.54949 1.49733 8.41016L7.76403 7.49955C8.14479 7.44422 8.47396 7.20507 8.64424 6.86004L11.4468 1.18145Z" fill="#B0B0B0"></path>
      <path d="M11.4468 1.18145C11.8756 0.312564 13.1146 0.312563 13.5434 1.18145L16.346 6.86004C16.5163 7.20507 16.8454 7.44422 17.2262 7.49955L23.4929 8.41016C24.4518 8.54949 24.8347 9.72785 24.1408 10.4042L19.6062 14.8244C19.3307 15.0929 19.2049 15.4799 19.27 15.8591L20.3404 22.1005C20.5042 23.0555 19.5019 23.7837 18.6442 23.3329L13.0391 20.3861C12.6986 20.207 12.2917 20.207 11.9511 20.3861L6.34601 23.3329C5.48837 23.7837 4.48599 23.0555 4.64979 22.1005L5.72027 15.8591C5.78531 15.4799 5.65958 15.0929 5.38405 14.8244L0.849432 10.4042C0.155586 9.72785 0.538458 8.54949 1.49733 8.41016L7.76403 7.49955C8.14479 7.44422 8.47396 7.20507 8.64424 6.86004L11.4468 1.18145Z" fill="#B0B0B0"></path>
      <path d="M11.4468 1.18145C11.8756 0.312564 13.1146 0.312563 13.5434 1.18145L16.346 6.86004C16.5163 7.20507 16.8454 7.44422 17.2262 7.49955L23.4929 8.41016C24.4518 8.54949 24.8347 9.72785 24.1408 10.4042L19.6062 14.8244C19.3307 15.0929 19.2049 15.4799 19.27 15.8591L20.3404 22.1005C20.5042 23.0555 19.5019 23.7837 18.6442 23.3329L13.0391 20.3861C12.6986 20.207 12.2917 20.207 11.9511 20.3861L6.34601 23.3329C5.48837 23.7837 4.48599 23.0555 4.64979 22.1005L5.72027 15.8591C5.78531 15.4799 5.65958 15.0929 5.38405 14.8244L0.849432 10.4042C0.155586 9.72785 0.538458 8.54949 1.49733 8.41016L7.76403 7.49955C8.14479 7.44422 8.47396 7.20507 8.64424 6.86004L11.4468 1.18145Z" fill="#B0B0B0"></path>
    </g>
    <defs>
      <clipPath id="clip0_405_1172">
        <rect width="24" height="24" fill="white" transform="translate(0.495117)"></rect>
      </clipPath>
    </defs>
  </symbol>
  <symbol fill="none" xmlns="http://www.w3.org/2000/svg" viewBox="0 0 24 24" id="hamburger">
    <path d="M3.5 17.5V16.5H19.78V17.5H3.5ZM3.5 12.5V11.5H19.78V12.5H3.5ZM3.5 7.5V6.5H19.78V7.5H3.5Z" fill="#B0B0B0" stroke="#B0B0B0"></path>
  </symbol>
  <symbol fill="none" xmlns="http://www.w3.org/2000/svg" viewBox="0 0 25 24" id="hr">
    <rect x="11.4951" width="2" height="24" fill="#B0B0B0"></rect>
  </symbol>
  <symbol fill="none" xmlns="http://www.w3.org/2000/svg" viewBox="0 0 25 24" id="instagram">
    <g clip-path="url(#clip0_405_1196)">
      <path d="M8.29512 2H16.6951C19.8951 2 22.4951 4.6 22.4951 7.8V16.2C22.4951 17.7383 21.884 19.2135 20.7963 20.3012C19.7086 21.3889 18.2334 22 16.6951 22H8.29512C5.09512 22 2.49512 19.4 2.49512 16.2V7.8C2.49512 6.26174 3.10619 4.78649 4.1939 3.69878C5.28161 2.61107 6.75686 2 8.29512 2ZM8.09512 4C7.14034 4 6.22466 4.37928 5.54953 5.05442C4.8744 5.72955 4.49512 6.64522 4.49512 7.6V16.4C4.49512 18.39 6.10512 20 8.09512 20H16.8951C17.8499 20 18.7656 19.6207 19.4407 18.9456C20.1158 18.2705 20.4951 17.3548 20.4951 16.4V7.6C20.4951 5.61 18.8851 4 16.8951 4H8.09512ZM17.7451 5.5C18.0766 5.5 18.3946 5.6317 18.629 5.86612C18.8634 6.10054 18.9951 6.41848 18.9951 6.75C18.9951 7.08152 18.8634 7.39946 18.629 7.63388C18.3946 7.8683 18.0766 8 17.7451 8C17.4136 8 17.0957 7.8683 16.8612 7.63388C16.6268 7.39946 16.4951 7.08152 16.4951 6.75C16.4951 6.41848 16.6268 6.10054 16.8612 5.86612C17.0957 5.6317 17.4136 5.5 17.7451 5.5ZM12.4951 7C13.8212 7 15.093 7.52678 16.0307 8.46447C16.9683 9.40215 17.4951 10.6739 17.4951 12C17.4951 13.3261 16.9683 14.5979 16.0307 15.5355C15.093 16.4732 13.8212 17 12.4951 17C11.169 17 9.89727 16.4732 8.95958 15.5355C8.0219 14.5979 7.49512 13.3261 7.49512 12C7.49512 10.6739 8.0219 9.40215 8.95958 8.46447C9.89727 7.52678 11.169 7 12.4951 7ZM12.4951 9C11.6995 9 10.9364 9.31607 10.3738 9.87868C9.81119 10.4413 9.49512 11.2044 9.49512 12C9.49512 12.7956 9.81119 13.5587 10.3738 14.1213C10.9364 14.6839 11.6995 15 12.4951 15C13.2908 15 14.0538 14.6839 14.6164 14.1213C15.179 13.5587 15.4951 12.7956 15.4951 12C15.4951 11.2044 15.179 10.4413 14.6164 9.87868C14.0538 9.31607 13.2908 9 12.4951 9Z" fill="#B0B0B0"></path>
    </g>
    <defs>
      <clipPath id="clip0_405_1196">
        <rect width="24" height="24" fill="white" transform="translate(0.495117)"></rect>
      </clipPath>
    </defs>
  </symbol>

  <symbol fill="none" xmlns="http://www.w3.org/2000/svg" viewBox="0 0 25 24" id="radio-checked">
    <g clip-path="url(#clip0_405_1219)">
      <rect x="1.49512" y="1" width="22" height="22" rx="11" fill="#424242"></rect>
      <rect x="1.49512" y="1" width="22" height="22" rx="11" stroke="#26CBFE" stroke-width="2"></rect>
      <circle cx="12.4951" cy="12" r="7.5" fill="#26CBFE"></circle>
    </g>
    <defs>
      <clipPath id="clip0_405_1219">
        <rect width="24" height="24" fill="white" transform="translate(0.495117)"></rect>
      </clipPath>
    </defs>
  </symbol>
  <symbol fill="none" xmlns="http://www.w3.org/2000/svg" viewBox="0 0 25 24" id="radio-unchecked">
    <g clip-path="url(#clip0_405_1221)">
      <rect x="0.495117" width="24" height="24" rx="12" fill="#424242"></rect>
      <circle cx="12.4951" cy="12" r="7.5" fill="#6C6C6C"></circle>
    </g>
    <defs>
      <clipPath id="clip0_405_1221">
        <rect width="24" height="24" fill="white" transform="translate(0.495117)"></rect>
      </clipPath>
    </defs>
  </symbol>
  <symbol fill="none" xmlns="http://www.w3.org/2000/svg" viewBox="0 0 25 24" id="unchecked">
    <g clip-path="url(#clip0_405_1226)">
      <rect x="0.495117" width="24" height="24" rx="4" fill="#424242"></rect>
      <path d="M10.3513 17.7465L5.36377 12.759L6.61064 11.5121L10.3513 15.2527L18.3794 7.22461L19.6263 8.47148L10.3513 17.7465Z" fill="#6C6C6C"></path>
    </g>
    <defs>
      <clipPath id="clip0_405_1226">
        <rect width="24" height="24" fill="white" transform="translate(0.495117)"></rect>
      </clipPath>
    </defs>
  </symbol>
  <symbol fill="none" xmlns="http://www.w3.org/2000/svg" viewBox="0 0 25 24" id="atSign">
    <g clip-path="url(#clip0_405_1194)">
      <path d="M17.2002 11.108C17.0382 8.121 15.4062 6.411 12.6662 6.394C11.0142 6.384 9.63321 7.084 8.78721 8.367L10.2952 9.4C10.9292 8.439 11.9302 8.24 12.6552 8.247C13.5582 8.253 14.2382 8.515 14.6792 9.027C14.9992 9.399 15.2142 9.914 15.3212 10.563C14.5199 10.427 13.6565 10.3853 12.7312 10.438C10.1252 10.588 8.45121 12.108 8.56321 14.219C8.62021 15.29 9.15321 16.212 10.0652 16.814C10.8352 17.323 11.8292 17.571 12.8602 17.515C14.2232 17.44 15.2922 16.921 16.0382 15.97C16.6042 15.248 16.9622 14.312 17.1202 13.134C17.7702 13.526 18.2502 14.041 18.5172 14.661C18.9692 15.715 18.9952 17.447 17.5822 18.859C16.3442 20.095 14.8562 20.631 12.6072 20.647C10.1122 20.629 8.22521 19.828 6.99921 18.269C5.84921 16.809 5.25621 14.699 5.23421 12C5.25621 9.3 5.85021 7.191 6.99921 5.73C8.22521 4.171 10.1122 3.371 12.6072 3.353C15.1202 3.372 17.0392 4.175 18.3132 5.743C18.9382 6.511 19.4082 7.477 19.7192 8.603L21.4852 8.133C21.1082 6.746 20.5162 5.551 19.7112 4.56C18.0782 2.55 15.6782 1.521 12.6012 1.5C9.53021 1.521 7.16921 2.555 5.58221 4.571C4.17121 6.366 3.44221 8.877 3.41821 12.007C3.44221 15.137 4.17121 17.634 5.58221 19.429C7.16921 21.445 9.54221 22.479 12.6122 22.5C15.3432 22.481 17.2672 21.766 18.8522 20.183C20.9272 18.11 20.8642 15.513 20.1812 13.919C19.6562 12.694 18.6112 11.713 17.2012 11.109M12.7632 15.666C11.6212 15.73 10.4352 15.218 10.3762 14.12C10.3332 13.306 10.9562 12.398 12.8332 12.29C13.6815 12.2332 14.5336 12.2917 15.3662 12.464C15.1502 15.166 13.8812 15.604 12.7632 15.666Z" fill="#B0B0B0"></path>
    </g>
    <defs>
      <clipPath id="clip0_405_1194">
        <rect width="24" height="24" fill="white" transform="translate(0.495117)"></rect>
      </clipPath>
    </defs>
  </symbol>
  <symbol fill="none" xmlns="http://www.w3.org/2000/svg" viewBox="0 0 24 24" id="calendar">
    <g clip-path="url(#clip0_405_1228)">
      <path d="M3 6C3 4.9 3.9 4 5 4H19C19.5304 4 20.0391 4.21071 20.4142 4.58579C20.7893 4.96086 21 5.46957 21 6V20C21 20.5304 20.7893 21.0391 20.4142 21.4142C20.0391 21.7893 19.5304 22 19 22H5C4.46957 22 3.96086 21.7893 3.58579 21.4142C3.21071 21.0391 3 20.5304 3 20V6ZM5 8V20H19V8H5ZM7 2H9V4H7V2ZM15 2H17V4H15V2ZM7 11H9V13H7V11ZM7 15H9V17H7V15ZM11 11H13V13H11V11ZM11 15H13V17H11V15ZM15 11H17V13H15V11ZM15 15H17V17H15V15Z" fill="#B0B0B0"></path>
    </g>
    <defs>
      <clipPath id="clip0_405_1228">
        <rect width="24" height="24" fill="white"></rect>
      </clipPath>
    </defs>
  </symbol>
</svg>